<svg width="218" height="167" viewBox="0 0 218 167" fill="none" xmlns="http://www.w3.org/2000/svg">
<path d="M112.429 166.158C170.358 166.158 217.318 163.597 217.318 160.436C217.318 157.276 170.358 154.714 112.429 154.714C54.5008 154.714 7.54053 157.276 7.54053 160.436C7.54053 163.597 54.5008 166.158 112.429 166.158Z" fill="#3A77FF"/>
<path opacity="0.3" d="M112.429 166.158C170.358 166.158 217.318 163.597 217.318 160.436C217.318 157.276 170.358 154.714 112.429 154.714C54.5008 154.714 7.54053 157.276 7.54053 160.436C7.54053 163.597 54.5008 166.158 112.429 166.158Z" fill="white"/>
<path d="M174.416 74.1879C174.384 74.1879 174.78 72.2171 174.823 72.0745C175.277 70.6691 176.989 68.2175 178.643 68.2228C178.918 68.2306 179.188 68.2963 179.436 68.4154C179.684 68.5346 179.904 68.7046 180.082 68.9144C180.26 69.1242 180.391 69.3691 180.468 69.6332C180.545 69.8973 180.566 70.1746 180.529 70.4472C180.407 71.6148 179.361 72.6028 178.416 73.1787C177.306 73.8709 174.416 74.1879 174.416 74.1879Z" fill="#3A77FF"/>
<path d="M171.209 60.9209C172.767 61.481 173.544 64.3658 173.491 65.8452C173.491 65.972 173.195 67.9586 173.169 67.9586H173.137C173.259 68.413 173.391 68.9044 173.523 69.438C173.755 70.4313 174.009 71.5514 174.204 72.7983C174.431 74.1358 174.579 75.4854 174.648 76.8402C174.732 78.3564 174.681 79.877 174.495 81.3841C174.492 81.4016 174.492 81.4194 174.495 81.4369C174.701 80.9984 175.309 79.7832 175.367 79.6933C176.181 78.457 178.474 76.5232 180.074 76.9882C180.337 77.0691 180.579 77.2042 180.786 77.3847C180.993 77.5653 181.16 77.7873 181.275 78.0363C181.391 78.2854 181.453 78.5559 181.457 78.8305C181.461 79.105 181.408 79.3774 181.3 79.6299C180.878 80.7183 179.61 81.3999 178.548 81.7011C177.348 82.0445 174.675 81.6377 174.463 81.606C174.238 83.134 173.91 84.645 173.481 86.1287C173.234 86.9952 172.966 87.8617 172.678 88.7282C172.862 88.3531 173.037 88.0202 173.063 87.9726C173.877 86.7363 176.17 84.8025 177.771 85.2622C178.034 85.3424 178.277 85.477 178.484 85.6575C178.691 85.8379 178.858 86.06 178.974 86.3092C179.09 86.5585 179.151 86.8294 179.155 87.1042C179.159 87.379 179.105 87.6515 178.997 87.904C178.574 88.9977 177.306 89.6739 176.244 89.9804C175.182 90.2868 172.878 89.9804 172.276 89.9011C172.165 90.2287 172.054 90.5616 171.938 90.8892C171.409 92.4742 170.839 94.0593 170.353 95.6126C170.178 96.141 170.025 96.7116 169.872 97.2611C170.041 96.9282 170.184 96.6482 170.21 96.6112C171.019 95.3749 173.317 93.4411 174.912 93.9008C175.175 93.9818 175.417 94.1169 175.624 94.2973C175.831 94.4778 175.998 94.6997 176.114 94.9485C176.23 95.1974 176.293 95.4679 176.298 95.7424C176.303 96.017 176.25 96.2895 176.144 96.5425C175.721 97.6309 174.448 98.3125 173.386 98.6137C172.324 98.9148 170.247 98.6507 169.529 98.5503C169.386 99.1209 169.249 99.6862 169.138 100.241C169.069 100.621 168.979 100.986 168.932 101.372C168.884 101.757 168.826 102.133 168.773 102.502C168.699 103.226 168.614 103.976 168.562 104.684C168.519 105.176 168.488 105.646 168.456 106.116C168.62 105.588 168.984 104.5 169.011 104.41C169.597 103.248 170.47 102.256 171.547 101.525C171.606 101.393 171.678 101.267 171.763 101.15C171.913 100.919 172.11 100.723 172.34 100.573C172.571 100.423 172.83 100.324 173.102 100.281C173.374 100.238 173.651 100.253 173.917 100.324C174.182 100.396 174.43 100.522 174.643 100.695C175.9 101.752 175.583 104.753 175.008 106.116C174.976 106.196 174.506 107.025 174.204 107.543C174.432 107.268 174.643 107.015 174.881 106.708C175.34 106.148 175.816 105.599 176.323 105.007L177.1 104.167C177.353 103.876 177.66 103.607 177.94 103.327C178.6 102.687 179.303 102.069 180.027 101.462C179.53 101.06 177.803 99.5964 177.306 98.6031C176.809 97.6098 176.455 96.2202 176.973 95.1741C177.086 94.9228 177.251 94.6982 177.457 94.5149C177.663 94.3317 177.905 94.194 178.168 94.1107C178.431 94.0274 178.708 94.0005 178.982 94.0317C179.256 94.0629 179.52 94.1515 179.757 94.2918C181.158 95.1688 181.3 98.154 180.936 99.5753C180.936 99.6651 180.534 100.664 180.318 101.208C180.756 100.849 181.189 100.484 181.644 100.151C182.954 99.1367 184.312 98.154 185.659 97.166L186.89 96.2519C186.716 96.1093 184.624 94.4186 184.064 93.309C183.572 92.321 183.213 90.9261 183.731 89.8747C183.845 89.624 184.01 89.4 184.216 89.2172C184.422 89.0344 184.664 88.897 184.927 88.8138C185.189 88.7306 185.466 88.7035 185.74 88.7343C186.013 88.765 186.278 88.853 186.515 88.9924C187.915 89.8747 188.058 92.8599 187.693 94.2759C187.667 94.3869 187.123 95.824 186.964 96.1832C187.868 95.507 188.761 94.8307 189.606 94.128C190.763 93.1827 191.858 92.1625 192.882 91.0741C192.803 91.0107 190.61 89.2565 190.039 88.1153C189.543 87.1273 189.189 85.7324 189.706 84.6863C189.819 84.4351 189.983 84.2106 190.189 84.0274C190.394 83.8442 190.636 83.7064 190.898 83.6231C191.161 83.5399 191.438 83.5129 191.711 83.5441C191.985 83.5752 192.249 83.6638 192.486 83.8039C193.891 84.681 194.034 87.6662 193.669 89.0875C193.643 89.1773 193.23 90.2763 193.019 90.7941L193.104 90.8416C194.106 89.7193 195.006 88.5099 195.793 87.2277C196.232 86.5302 196.617 85.8381 196.977 85.1512C196.533 84.8659 194.53 83.5662 193.902 82.5729C193.273 81.5796 192.797 80.3009 193.194 79.202C193.279 78.9433 193.417 78.7054 193.6 78.5032C193.782 78.301 194.005 78.1391 194.253 78.0277C194.502 77.9164 194.771 77.858 195.043 77.8564C195.316 77.8548 195.585 77.91 195.835 78.0185C197.331 78.737 197.795 81.6905 197.589 83.1541C197.589 83.2333 197.378 84.0311 197.225 84.6123C197.378 84.3006 197.547 83.9836 197.69 83.6824C198.218 82.5517 198.667 81.4845 199.037 80.5123C199.248 79.9839 199.423 79.4556 199.565 79.017C199.275 78.4887 198.144 76.4545 198.033 75.3186C197.922 74.1826 198.102 72.7878 198.963 71.9952C199.16 71.8026 199.394 71.6534 199.652 71.5574C199.91 71.4615 200.185 71.4209 200.46 71.4384C200.735 71.4558 201.002 71.5309 201.246 71.6587C201.49 71.7865 201.704 71.9642 201.874 72.1801C202.868 73.5063 201.922 76.3383 201.066 77.5482C200.992 77.6486 199.645 79.1333 199.629 79.1333V79.1016C199.481 79.5507 199.322 80.0315 199.132 80.5493C198.783 81.5056 198.371 82.5887 197.854 83.7194C197.302 84.9589 196.679 86.1655 195.988 87.3333C195.219 88.6419 194.335 89.8796 193.347 91.0318L193.31 91.0741C193.722 90.8152 194.895 90.1442 194.995 90.1019C196.358 89.5207 199.328 89.1879 200.416 90.44C200.59 90.6526 200.718 90.8993 200.791 91.1644C200.865 91.4294 200.881 91.7068 200.84 91.9787C200.799 92.2506 200.702 92.5109 200.554 92.7427C200.407 92.9746 200.212 93.1729 199.983 93.3249C199.027 94.0012 197.589 93.8532 196.538 93.5309C195.349 93.1558 193.368 91.3435 193.183 91.2009C192.153 92.3503 191.046 93.4289 189.87 94.4291C189.183 95.0209 188.481 95.5915 187.757 96.1515C188.121 95.9455 188.449 95.7606 188.496 95.7394C189.854 95.1582 192.824 94.8254 193.912 96.0776C194.087 96.2898 194.216 96.5365 194.289 96.8017C194.363 97.0668 194.38 97.3445 194.339 97.6166C194.298 97.8887 194.2 98.1492 194.052 98.3811C193.904 98.6129 193.709 98.811 193.479 98.9624C192.528 99.6387 191.091 99.4908 190.039 99.1685C188.988 98.8462 187.228 97.3245 186.774 96.9177L185.944 97.557C184.613 98.5767 183.303 99.5859 182.008 100.616C181.559 100.981 181.131 101.356 180.698 101.726C181.026 101.541 181.295 101.388 181.343 101.372C182.7 100.785 185.67 100.458 186.758 101.705C186.934 101.916 187.063 102.163 187.137 102.428C187.211 102.694 187.228 102.972 187.188 103.244C187.147 103.516 187.049 103.777 186.9 104.009C186.751 104.241 186.555 104.439 186.325 104.589C185.369 105.266 183.937 105.118 182.885 104.801C181.834 104.484 180.244 103.099 179.715 102.619C179.287 103.015 178.854 103.406 178.458 103.813C178.188 104.093 177.929 104.341 177.665 104.642C177.401 104.943 177.137 105.213 176.904 105.498C176.445 106.058 175.964 106.639 175.525 107.199C175.219 107.585 174.934 107.96 174.648 108.335C175.087 107.971 175.974 107.279 176.054 107.221C177.306 106.439 180.191 105.662 181.459 106.729C181.664 106.914 181.827 107.139 181.939 107.39C182.051 107.642 182.109 107.915 182.109 108.19C182.109 108.466 182.051 108.738 181.939 108.99C181.827 109.241 181.664 109.467 181.459 109.651C180.619 110.459 179.182 110.549 178.093 110.38C176.889 110.19 174.712 108.795 174.442 108.594C173.967 109.218 173.512 109.831 173.09 110.417C171.626 112.441 170.485 114.179 169.703 115.41L169.624 115.532L168.609 115.04C168.662 114.961 168.715 114.887 168.768 114.802C169.587 113.577 170.781 111.844 172.302 109.831C172.783 109.197 173.306 108.526 173.85 107.839C173.284 107.223 172.755 106.573 172.265 105.894C171.098 106.349 168.673 106.37 168.361 106.37C168.313 107.152 168.271 107.913 168.239 108.631C168.134 111.13 168.144 113.212 168.171 114.665V114.839L167.056 114.311C167.056 112.869 167.114 110.908 167.262 108.6C167.309 107.802 167.378 106.951 167.457 106.085C167.146 106.005 164.625 105.355 163.674 104.595C162.813 103.908 161.904 102.788 161.936 101.62C161.933 101.345 161.988 101.072 162.098 100.819C162.208 100.567 162.37 100.34 162.574 100.155C162.777 99.9689 163.018 99.8285 163.279 99.7423C163.541 99.6561 163.818 99.6262 164.092 99.6545C165.735 99.8659 167.109 102.518 167.383 103.971C167.383 104.056 167.468 105.028 167.5 105.609C167.537 105.25 167.563 104.906 167.6 104.552C167.674 103.829 167.769 103.105 167.87 102.328C167.928 101.958 167.991 101.583 168.049 101.203C168.107 100.822 168.208 100.431 168.287 100.04C168.488 99.142 168.731 98.2386 169 97.3351C168.366 97.2664 166.121 97.0022 165.154 96.4527C164.187 95.9032 163.13 94.9311 162.988 93.774C162.942 93.502 162.955 93.2235 163.026 92.9569C163.096 92.6903 163.222 92.4415 163.395 92.227C163.568 92.0124 163.785 91.8369 164.03 91.7119C164.276 91.587 164.546 91.5155 164.821 91.502C166.475 91.4598 168.239 93.8744 168.725 95.2692C168.757 95.359 168.995 96.3999 169.111 96.9758C169.28 96.4474 169.439 95.8874 169.639 95.3485C170.168 93.7634 170.765 92.21 171.346 90.6408C171.526 90.16 171.695 89.6792 171.874 89.2037C171.647 89.2037 168.968 88.9237 167.891 88.3055C166.934 87.7772 165.867 86.7839 165.719 85.6268C165.676 85.355 165.69 85.0771 165.761 84.8112C165.832 84.5453 165.958 84.2972 166.131 84.083C166.303 83.8689 166.519 83.6934 166.764 83.5679C167.009 83.4425 167.278 83.3699 167.553 83.3548C169.212 83.3126 170.976 85.7271 171.462 87.122C171.499 87.2277 171.837 88.7071 171.906 89.1139C172.287 88.0572 172.662 87.0005 172.963 85.9438C173.41 84.5172 173.763 83.0628 174.02 81.5901C173.914 81.5901 171.114 81.326 170.015 80.6919C169.053 80.1636 167.986 79.1703 167.843 78.0132C167.8 77.7414 167.814 77.4636 167.885 77.1976C167.956 76.9317 168.082 76.6836 168.255 76.4695C168.427 76.2553 168.643 76.0798 168.888 75.9544C169.133 75.8289 169.402 75.7563 169.676 75.7413C171.33 75.7043 173.095 78.1136 173.581 79.5084C173.613 79.6035 173.872 80.7448 173.983 81.289H174.078C174.296 79.8007 174.381 78.296 174.331 76.7927C174.331 75.9632 174.252 75.1759 174.173 74.4045C173.644 74.4045 171.246 74.4045 170.189 73.9501C169.132 73.4958 168.007 72.661 167.732 71.525C167.659 71.2589 167.643 70.9803 167.684 70.7075C167.726 70.4347 167.825 70.1738 167.975 69.9418C168.124 69.7099 168.321 69.5122 168.553 69.3616C168.784 69.2111 169.045 69.1111 169.317 69.0681C170.96 68.8462 172.979 71.0495 173.618 72.3862C173.65 72.4602 173.924 73.2369 174.109 73.8022C174.072 73.4588 174.035 73.0995 173.988 72.7719C173.824 71.5303 173.592 70.3996 173.38 69.4063C173.253 68.841 173.132 68.3496 173.01 67.8582C172.482 67.594 170.411 66.5056 169.698 65.6233C168.984 64.7409 168.361 63.4782 168.641 62.3422C168.701 62.0714 168.818 61.8166 168.985 61.5944C169.151 61.3723 169.362 61.1879 169.605 61.0536C169.848 60.9193 170.116 60.838 170.393 60.8151C170.669 60.7922 170.947 60.8283 171.209 60.9209Z" fill="#3A77FF"/>
<path d="M201.156 86.4563C199.861 86.4034 197.272 85.0773 197.272 85.072C197.272 85.0667 198.662 83.6349 198.762 83.5556C199.92 82.631 202.699 81.532 204.078 82.4461C204.303 82.605 204.492 82.8095 204.632 83.0462C204.773 83.2828 204.863 83.5465 204.895 83.82C204.927 84.0934 204.902 84.3707 204.82 84.6337C204.739 84.8967 204.603 85.1396 204.421 85.3467C203.681 86.2344 202.26 86.4985 201.156 86.4563Z" fill="#3A77FF"/>
<g opacity="0.5">
<path d="M174.416 74.1879C174.384 74.1879 174.78 72.2171 174.823 72.0745C175.277 70.6691 176.989 68.2175 178.643 68.2228C178.918 68.2306 179.188 68.2963 179.436 68.4154C179.684 68.5346 179.904 68.7046 180.082 68.9144C180.26 69.1242 180.391 69.3691 180.468 69.6332C180.545 69.8973 180.566 70.1746 180.529 70.4472C180.407 71.6148 179.361 72.6028 178.416 73.1787C177.306 73.8709 174.416 74.1879 174.416 74.1879Z" fill="white"/>
<path d="M171.209 60.9209C172.767 61.481 173.544 64.3658 173.491 65.8452C173.491 65.972 173.195 67.9586 173.169 67.9586H173.137C173.259 68.413 173.391 68.9044 173.523 69.438C173.755 70.4313 174.009 71.5514 174.204 72.7983C174.431 74.1358 174.579 75.4854 174.648 76.8402C174.732 78.3564 174.681 79.877 174.495 81.3841C174.492 81.4016 174.492 81.4194 174.495 81.4369C174.701 80.9984 175.309 79.7832 175.367 79.6933C176.181 78.457 178.474 76.5232 180.074 76.9882C180.337 77.0691 180.579 77.2042 180.786 77.3847C180.993 77.5653 181.16 77.7873 181.275 78.0363C181.391 78.2854 181.453 78.5559 181.457 78.8305C181.461 79.105 181.408 79.3774 181.3 79.6299C180.878 80.7183 179.61 81.3999 178.548 81.7011C177.348 82.0445 174.675 81.6377 174.463 81.606C174.238 83.134 173.91 84.645 173.481 86.1287C173.234 86.9952 172.966 87.8617 172.678 88.7282C172.862 88.3531 173.037 88.0202 173.063 87.9726C173.877 86.7363 176.17 84.8025 177.771 85.2622C178.034 85.3424 178.277 85.477 178.484 85.6575C178.691 85.8379 178.858 86.06 178.974 86.3092C179.09 86.5585 179.151 86.8294 179.155 87.1042C179.159 87.379 179.105 87.6515 178.997 87.904C178.574 88.9977 177.306 89.6739 176.244 89.9804C175.182 90.2868 172.878 89.9804 172.276 89.9011C172.165 90.2287 172.054 90.5616 171.938 90.8892C171.409 92.4742 170.839 94.0593 170.353 95.6126C170.178 96.141 170.025 96.7116 169.872 97.2611C170.041 96.9282 170.184 96.6482 170.21 96.6112C171.019 95.3749 173.317 93.4411 174.912 93.9008C175.175 93.9818 175.417 94.1169 175.624 94.2973C175.831 94.4778 175.998 94.6997 176.114 94.9485C176.23 95.1974 176.293 95.4679 176.298 95.7424C176.303 96.017 176.25 96.2895 176.144 96.5425C175.721 97.6309 174.448 98.3125 173.386 98.6137C172.324 98.9148 170.247 98.6507 169.529 98.5503C169.386 99.1209 169.249 99.6862 169.138 100.241C169.069 100.621 168.979 100.986 168.932 101.372C168.884 101.757 168.826 102.133 168.773 102.502C168.699 103.226 168.614 103.976 168.562 104.684C168.519 105.176 168.488 105.646 168.456 106.116C168.62 105.588 168.984 104.5 169.011 104.41C169.597 103.248 170.47 102.256 171.547 101.525C171.606 101.393 171.678 101.267 171.763 101.15C171.913 100.919 172.11 100.723 172.34 100.573C172.571 100.423 172.83 100.324 173.102 100.281C173.374 100.238 173.651 100.253 173.917 100.324C174.182 100.396 174.43 100.522 174.643 100.695C175.9 101.752 175.583 104.753 175.008 106.116C174.976 106.196 174.506 107.025 174.204 107.543C174.432 107.268 174.643 107.015 174.881 106.708C175.34 106.148 175.816 105.599 176.323 105.007L177.1 104.167C177.353 103.876 177.66 103.607 177.94 103.327C178.6 102.687 179.303 102.069 180.027 101.462C179.53 101.06 177.803 99.5964 177.306 98.6031C176.809 97.6098 176.455 96.2202 176.973 95.1741C177.086 94.9228 177.251 94.6982 177.457 94.5149C177.663 94.3317 177.905 94.194 178.168 94.1107C178.431 94.0274 178.708 94.0005 178.982 94.0317C179.256 94.0629 179.52 94.1515 179.757 94.2918C181.158 95.1688 181.3 98.154 180.936 99.5753C180.936 99.6651 180.534 100.664 180.318 101.208C180.756 100.849 181.189 100.484 181.644 100.151C182.954 99.1367 184.312 98.154 185.659 97.166L186.89 96.2519C186.716 96.1093 184.624 94.4186 184.064 93.309C183.572 92.321 183.213 90.9261 183.731 89.8747C183.845 89.624 184.01 89.4 184.216 89.2172C184.422 89.0344 184.664 88.897 184.927 88.8138C185.189 88.7306 185.466 88.7035 185.74 88.7343C186.013 88.765 186.278 88.853 186.515 88.9924C187.915 89.8747 188.058 92.8599 187.693 94.2759C187.667 94.3869 187.123 95.824 186.964 96.1832C187.868 95.507 188.761 94.8307 189.606 94.128C190.763 93.1827 191.858 92.1625 192.882 91.0741C192.803 91.0107 190.61 89.2565 190.039 88.1153C189.543 87.1273 189.189 85.7324 189.706 84.6863C189.819 84.4351 189.983 84.2106 190.189 84.0274C190.394 83.8442 190.636 83.7064 190.898 83.6231C191.161 83.5399 191.438 83.5129 191.711 83.5441C191.985 83.5752 192.249 83.6638 192.486 83.8039C193.891 84.681 194.034 87.6662 193.669 89.0875C193.643 89.1773 193.23 90.2763 193.019 90.7941L193.104 90.8416C194.106 89.7193 195.006 88.5099 195.793 87.2277C196.232 86.5302 196.617 85.8381 196.977 85.1512C196.533 84.8659 194.53 83.5662 193.902 82.5729C193.273 81.5796 192.797 80.3009 193.194 79.202C193.279 78.9433 193.417 78.7054 193.6 78.5032C193.782 78.301 194.005 78.1391 194.253 78.0277C194.502 77.9164 194.771 77.858 195.043 77.8564C195.316 77.8548 195.585 77.91 195.835 78.0185C197.331 78.737 197.795 81.6905 197.589 83.1541C197.589 83.2333 197.378 84.0311 197.225 84.6123C197.378 84.3006 197.547 83.9836 197.69 83.6824C198.218 82.5517 198.667 81.4845 199.037 80.5123C199.248 79.9839 199.423 79.4556 199.565 79.017C199.275 78.4887 198.144 76.4545 198.033 75.3186C197.922 74.1826 198.102 72.7878 198.963 71.9952C199.16 71.8026 199.394 71.6534 199.652 71.5574C199.91 71.4615 200.185 71.4209 200.46 71.4384C200.735 71.4558 201.002 71.5309 201.246 71.6587C201.49 71.7865 201.704 71.9642 201.874 72.1801C202.868 73.5063 201.922 76.3383 201.066 77.5482C200.992 77.6486 199.645 79.1333 199.629 79.1333V79.1016C199.481 79.5507 199.322 80.0315 199.132 80.5493C198.783 81.5056 198.371 82.5887 197.854 83.7194C197.302 84.9589 196.679 86.1655 195.988 87.3333C195.219 88.6419 194.335 89.8796 193.347 91.0318L193.31 91.0741C193.722 90.8152 194.895 90.1442 194.995 90.1019C196.358 89.5207 199.328 89.1879 200.416 90.44C200.59 90.6526 200.718 90.8993 200.791 91.1644C200.865 91.4294 200.881 91.7068 200.84 91.9787C200.799 92.2506 200.702 92.5109 200.554 92.7427C200.407 92.9746 200.212 93.1729 199.983 93.3249C199.027 94.0012 197.589 93.8532 196.538 93.5309C195.349 93.1558 193.368 91.3435 193.183 91.2009C192.153 92.3503 191.046 93.4289 189.87 94.4291C189.183 95.0209 188.481 95.5915 187.757 96.1515C188.121 95.9455 188.449 95.7606 188.496 95.7394C189.854 95.1582 192.824 94.8254 193.912 96.0776C194.087 96.2898 194.216 96.5365 194.289 96.8017C194.363 97.0668 194.38 97.3445 194.339 97.6166C194.298 97.8887 194.2 98.1492 194.052 98.3811C193.904 98.6129 193.709 98.811 193.479 98.9624C192.528 99.6387 191.091 99.4908 190.039 99.1685C188.988 98.8462 187.228 97.3245 186.774 96.9177L185.944 97.557C184.613 98.5767 183.303 99.5859 182.008 100.616C181.559 100.981 181.131 101.356 180.698 101.726C181.026 101.541 181.295 101.388 181.343 101.372C182.7 100.785 185.67 100.458 186.758 101.705C186.934 101.916 187.063 102.163 187.137 102.428C187.211 102.694 187.228 102.972 187.188 103.244C187.147 103.516 187.049 103.777 186.9 104.009C186.751 104.241 186.555 104.439 186.325 104.589C185.369 105.266 183.937 105.118 182.885 104.801C181.834 104.484 180.244 103.099 179.715 102.619C179.287 103.015 178.854 103.406 178.458 103.813C178.188 104.093 177.929 104.341 177.665 104.642C177.401 104.943 177.137 105.213 176.904 105.498C176.445 106.058 175.964 106.639 175.525 107.199C175.219 107.585 174.934 107.96 174.648 108.335C175.087 107.971 175.974 107.279 176.054 107.221C177.306 106.439 180.191 105.662 181.459 106.729C181.664 106.914 181.827 107.139 181.939 107.39C182.051 107.642 182.109 107.915 182.109 108.19C182.109 108.466 182.051 108.738 181.939 108.99C181.827 109.241 181.664 109.467 181.459 109.651C180.619 110.459 179.182 110.549 178.093 110.38C176.889 110.19 174.712 108.795 174.442 108.594C173.967 109.218 173.512 109.831 173.09 110.417C171.626 112.441 170.485 114.179 169.703 115.41L169.624 115.532L168.609 115.04C168.662 114.961 168.715 114.887 168.768 114.802C169.587 113.577 170.781 111.844 172.302 109.831C172.783 109.197 173.306 108.526 173.85 107.839C173.284 107.223 172.755 106.573 172.265 105.894C171.098 106.349 168.673 106.37 168.361 106.37C168.313 107.152 168.271 107.913 168.239 108.631C168.134 111.13 168.144 113.212 168.171 114.665V114.839L167.056 114.311C167.056 112.869 167.114 110.908 167.262 108.6C167.309 107.802 167.378 106.951 167.457 106.085C167.146 106.005 164.625 105.355 163.674 104.595C162.813 103.908 161.904 102.788 161.936 101.62C161.933 101.345 161.988 101.072 162.098 100.819C162.208 100.567 162.37 100.34 162.574 100.155C162.777 99.9689 163.018 99.8285 163.279 99.7423C163.541 99.6561 163.818 99.6262 164.092 99.6545C165.735 99.8659 167.109 102.518 167.383 103.971C167.383 104.056 167.468 105.028 167.5 105.609C167.537 105.25 167.563 104.906 167.6 104.552C167.674 103.829 167.769 103.105 167.87 102.328C167.928 101.958 167.991 101.583 168.049 101.203C168.107 100.822 168.208 100.431 168.287 100.04C168.488 99.142 168.731 98.2386 169 97.3351C168.366 97.2664 166.121 97.0022 165.154 96.4527C164.187 95.9032 163.13 94.9311 162.988 93.774C162.942 93.502 162.955 93.2235 163.026 92.9569C163.096 92.6903 163.222 92.4415 163.395 92.227C163.568 92.0124 163.785 91.8369 164.03 91.7119C164.276 91.587 164.546 91.5155 164.821 91.502C166.475 91.4598 168.239 93.8744 168.725 95.2692C168.757 95.359 168.995 96.3999 169.111 96.9758C169.28 96.4474 169.439 95.8874 169.639 95.3485C170.168 93.7634 170.765 92.21 171.346 90.6408C171.526 90.16 171.695 89.6792 171.874 89.2037C171.647 89.2037 168.968 88.9237 167.891 88.3055C166.934 87.7772 165.867 86.7839 165.719 85.6268C165.676 85.355 165.69 85.0771 165.761 84.8112C165.832 84.5453 165.958 84.2972 166.131 84.083C166.303 83.8689 166.519 83.6934 166.764 83.5679C167.009 83.4425 167.278 83.3699 167.553 83.3548C169.212 83.3126 170.976 85.7271 171.462 87.122C171.499 87.2277 171.837 88.7071 171.906 89.1139C172.287 88.0572 172.662 87.0005 172.963 85.9438C173.41 84.5172 173.763 83.0628 174.02 81.5901C173.914 81.5901 171.114 81.326 170.015 80.6919C169.053 80.1636 167.986 79.1703 167.843 78.0132C167.8 77.7414 167.814 77.4636 167.885 77.1976C167.956 76.9317 168.082 76.6836 168.255 76.4695C168.427 76.2553 168.643 76.0798 168.888 75.9544C169.133 75.8289 169.402 75.7563 169.676 75.7413C171.33 75.7043 173.095 78.1136 173.581 79.5084C173.613 79.6035 173.872 80.7448 173.983 81.289H174.078C174.296 79.8007 174.381 78.296 174.331 76.7927C174.331 75.9632 174.252 75.1759 174.173 74.4045C173.644 74.4045 171.246 74.4045 170.189 73.9501C169.132 73.4958 168.007 72.661 167.732 71.525C167.659 71.2589 167.643 70.9803 167.684 70.7075C167.726 70.4347 167.825 70.1738 167.975 69.9418C168.124 69.7099 168.321 69.5122 168.553 69.3616C168.784 69.2111 169.045 69.1111 169.317 69.0681C170.96 68.8462 172.979 71.0495 173.618 72.3862C173.65 72.4602 173.924 73.2369 174.109 73.8022C174.072 73.4588 174.035 73.0995 173.988 72.7719C173.824 71.5303 173.592 70.3996 173.38 69.4063C173.253 68.841 173.132 68.3496 173.01 67.8582C172.482 67.594 170.411 66.5056 169.698 65.6233C168.984 64.7409 168.361 63.4782 168.641 62.3422C168.701 62.0714 168.818 61.8166 168.985 61.5944C169.151 61.3723 169.362 61.1879 169.605 61.0536C169.848 60.9193 170.116 60.838 170.393 60.8151C170.669 60.7922 170.947 60.8283 171.209 60.9209Z" fill="white"/>
<path d="M201.156 86.4563C199.861 86.4034 197.272 85.0773 197.272 85.072C197.272 85.0667 198.662 83.6349 198.762 83.5556C199.92 82.631 202.699 81.532 204.078 82.4461C204.303 82.605 204.492 82.8095 204.632 83.0462C204.773 83.2828 204.863 83.5465 204.895 83.82C204.927 84.0934 204.902 84.3707 204.82 84.6337C204.739 84.8967 204.603 85.1396 204.421 85.3467C203.681 86.2344 202.26 86.4985 201.156 86.4563Z" fill="white"/>
</g>
<path d="M186.04 118.876C186.04 118.876 178.183 99.9346 173.787 100.759C169.391 101.583 181.316 130.949 181.316 130.949C181.316 130.949 167.494 104.875 158.069 104.875C148.643 104.875 161.524 133.696 173.46 143.302C173.46 143.302 154.613 122.992 143.618 127.383C132.623 131.773 165.608 152.358 165.608 152.358C165.608 152.358 146.445 146.319 148.643 150.984C150.841 155.649 156.811 156.474 156.811 156.474L135.149 157.573H210.545L193.579 155.924C193.579 155.924 211.173 147.143 206.461 143.577C201.748 140.01 191.381 147.692 191.381 147.692C191.381 147.692 209.287 127.932 205.832 120.519C202.376 113.106 186.98 133.971 186.98 133.971C186.98 133.971 199.55 107.347 197.019 102.682C194.488 98.0167 186.04 118.876 186.04 118.876Z" fill="#3A77FF"/>
<path opacity="0.4" d="M186.04 118.876C186.04 118.876 178.183 99.9346 173.787 100.759C169.391 101.583 181.316 130.949 181.316 130.949C181.316 130.949 167.494 104.875 158.069 104.875C148.643 104.875 161.524 133.696 173.46 143.302C173.46 143.302 154.613 122.992 143.618 127.383C132.623 131.773 165.608 152.358 165.608 152.358C165.608 152.358 146.445 146.319 148.643 150.984C150.841 155.649 156.811 156.474 156.811 156.474L135.149 157.573H210.545L193.579 155.924C193.579 155.924 211.173 147.143 206.461 143.577C201.748 140.01 191.381 147.692 191.381 147.692C191.381 147.692 209.287 127.932 205.832 120.519C202.376 113.106 186.98 133.971 186.98 133.971C186.98 133.971 199.55 107.347 197.019 102.682C194.488 98.0167 186.04 118.876 186.04 118.876Z" fill="white"/>
<path d="M188.555 119.869C181.638 140.29 181.638 154.741 181.638 154.741C181.638 154.741 189.807 155.052 198.292 148.77" stroke="#122757" stroke-linecap="round" stroke-linejoin="round"/>
<path d="M185.099 130.87C183.673 124.764 181.781 118.776 179.44 112.958" stroke="#122757" stroke-linecap="round" stroke-linejoin="round"/>
<path d="M164.678 118.929L182.267 145.003C182.267 145.003 194.208 134.964 198.292 129.295" stroke="#122757" stroke-linecap="round" stroke-linejoin="round"/>
<path d="M181.955 151.291C181.955 151.291 163.421 142.493 155.881 137.485" stroke="#122757" stroke-linecap="round" stroke-linejoin="round"/>
<path d="M165.317 10.6798H108.868C106.557 10.6798 104.684 12.5533 104.684 14.8644V153.388C104.684 155.699 106.557 157.573 108.868 157.573H165.317C167.629 157.573 169.502 155.699 169.502 153.388V14.8644C169.502 12.5533 167.629 10.6798 165.317 10.6798Z" fill="white" stroke="#122757" stroke-linecap="round" stroke-linejoin="round"/>
<path d="M167.336 36.3948C167.107 36.3948 166.888 36.304 166.727 36.1425C166.565 35.981 166.475 35.7619 166.475 35.5335V23.989C166.492 23.7716 166.59 23.5686 166.75 23.4205C166.91 23.2724 167.12 23.1901 167.338 23.1901C167.557 23.1901 167.767 23.2724 167.927 23.4205C168.087 23.5686 168.185 23.7716 168.202 23.989V35.5124C168.204 35.6275 168.184 35.7419 168.141 35.8489C168.098 35.9558 168.035 36.0532 167.954 36.1354C167.874 36.2175 167.777 36.2828 167.671 36.3273C167.565 36.3719 167.451 36.3948 167.336 36.3948Z" fill="#122757"/>
<path d="M167.336 47.0886C167.107 47.0886 166.888 46.9979 166.727 46.8364C166.565 46.6749 166.475 46.4558 166.475 46.2274V39.7762C166.492 39.5588 166.59 39.3558 166.75 39.2077C166.91 39.0596 167.12 38.9773 167.338 38.9773C167.557 38.9773 167.767 39.0596 167.927 39.2077C168.087 39.3558 168.185 39.5588 168.202 39.7762V46.2274C168.201 46.4563 168.109 46.6754 167.947 46.8367C167.784 46.9981 167.565 47.0886 167.336 47.0886Z" fill="#122757"/>
<path d="M160.43 10.6798H103.981C101.67 10.6798 99.7961 12.5533 99.7961 14.8644V153.388C99.7961 155.699 101.67 157.573 103.981 157.573H160.43C162.741 157.573 164.615 155.699 164.615 153.388V14.8644C164.615 12.5533 162.741 10.6798 160.43 10.6798Z" fill="#122757" stroke="#122757" stroke-linecap="round" stroke-linejoin="round"/>
<path d="M160.298 20.4596H104.113V146.451H160.298V20.4596Z" fill="#3A77FF"/>
<path d="M123.863 16.4336H138.821" stroke="white" stroke-width="3" stroke-linecap="round" stroke-linejoin="round"/>
<path d="M130.193 150.91C130.193 151.94 129.548 152.775 128.75 152.775C127.952 152.775 127.313 151.94 127.313 150.91C127.313 149.88 127.958 149.04 128.75 149.04C129.543 149.04 130.193 149.875 130.193 150.91Z" fill="white"/>
<path d="M132.205 51.8121C137.586 51.8121 141.948 46.7263 141.948 40.4525C141.948 34.1788 137.586 29.0929 132.205 29.0929C126.825 29.0929 122.463 34.1788 122.463 40.4525C122.463 46.7263 126.825 51.8121 132.205 51.8121Z" fill="white"/>
<path d="M132.206 40.3099C134.248 40.3099 135.904 38.3772 135.904 35.9932C135.904 33.6092 134.248 31.6766 132.206 31.6766C130.163 31.6766 128.507 33.6092 128.507 35.9932C128.507 38.3772 130.163 40.3099 132.206 40.3099Z" fill="#122757" stroke="#122757" stroke-linecap="round" stroke-linejoin="round"/>
<path d="M132.206 41.4564C128.507 41.4564 125.48 44.2936 125.48 47.7966C125.483 48.1226 125.513 48.4478 125.57 48.7688C126.39 49.7263 127.408 50.4949 128.553 51.0219C129.699 51.5488 130.945 51.8217 132.206 51.8217C133.467 51.8217 134.713 51.5488 135.858 51.0219C137.003 50.4949 138.021 49.7263 138.842 48.7688C138.894 48.4473 138.922 48.1223 138.926 47.7966C138.926 44.2936 135.915 41.4564 132.206 41.4564Z" fill="#122757" stroke="#122757" stroke-linecap="round" stroke-linejoin="round"/>
<path d="M144.051 89.9328H120.36C119.733 89.9081 119.141 89.6354 118.715 89.1747C118.289 88.714 118.064 88.103 118.088 87.476V72.8512C118.088 64.4239 124.428 57.5659 132.206 57.5659C139.983 57.5659 146.318 64.4345 146.318 72.8512V87.4654C146.331 87.7763 146.283 88.0868 146.177 88.3792C146.07 88.6715 145.907 88.94 145.696 89.1692C145.486 89.3983 145.232 89.5837 144.95 89.7148C144.668 89.8458 144.362 89.9199 144.051 89.9328ZM122.627 85.0191H141.779V72.867C141.779 67.1502 137.484 62.4954 132.206 62.4954C126.927 62.4954 122.627 67.1502 122.627 72.867V85.0191Z" fill="#122757"/>
<path d="M148.653 79.9522H115.758V111.072H148.653V79.9522Z" fill="white"/>
<path d="M136.998 101.377L134.557 95.507C135.097 95.0988 135.533 94.5698 135.831 93.9623C136.13 93.3549 136.281 92.6859 136.274 92.0093C136.274 89.6686 134.525 87.7824 132.364 87.7824C130.203 87.7824 128.46 89.6739 128.46 92.0093C128.451 92.6855 128.602 93.3543 128.899 93.9618C129.197 94.5693 129.632 95.0985 130.172 95.507L127.736 101.377H136.998Z" fill="#122757" stroke="#122757" stroke-linecap="round" stroke-linejoin="round"/>
<path d="M122.183 139.038C122.233 139.075 122.294 139.095 122.357 139.096C122.402 139.096 122.446 139.085 122.486 139.064C122.526 139.042 122.559 139.012 122.584 138.975L160.298 87.6768V86.7046L122.141 138.636C122.117 138.666 122.099 138.699 122.089 138.735C122.078 138.771 122.075 138.809 122.078 138.846C122.082 138.883 122.094 138.919 122.112 138.952C122.129 138.985 122.154 139.014 122.183 139.038Z" fill="white"/>
<path d="M152.711 38.9414C152.688 38.9719 152.672 39.0064 152.663 39.0432C152.654 39.0799 152.653 39.1181 152.659 39.1555C152.664 39.1928 152.678 39.2287 152.698 39.2608C152.717 39.293 152.744 39.321 152.774 39.343C152.836 39.387 152.913 39.405 152.988 39.3932C153.063 39.3813 153.13 39.3405 153.176 39.2796L160.298 29.5949V28.6438L152.711 38.9414Z" fill="white"/>
<path d="M104.113 106.026L150.672 42.7139C150.716 42.6522 150.735 42.5753 150.723 42.5C150.711 42.4247 150.67 42.3572 150.608 42.3123C150.546 42.2675 150.47 42.249 150.394 42.2609C150.319 42.2727 150.251 42.3141 150.207 42.3757L104.134 105.054L104.113 106.026Z" fill="white"/>
<path d="M117.808 145.283C117.853 145.282 117.897 145.272 117.937 145.251C117.978 145.231 118.013 145.202 118.04 145.167L120.682 141.595C120.705 141.565 120.721 141.53 120.73 141.493C120.739 141.457 120.74 141.419 120.735 141.381C120.729 141.344 120.715 141.308 120.696 141.276C120.676 141.244 120.65 141.216 120.619 141.194C120.557 141.15 120.48 141.132 120.405 141.143C120.33 141.155 120.263 141.196 120.217 141.257L117.576 144.823C117.553 144.854 117.536 144.888 117.527 144.924C117.517 144.961 117.515 144.999 117.521 145.036C117.526 145.074 117.539 145.11 117.558 145.142C117.578 145.174 117.603 145.203 117.634 145.225C117.683 145.264 117.745 145.285 117.808 145.283Z" fill="white"/>
<path d="M160.298 97.948L129.336 140.063C129.305 140.106 129.286 140.156 129.282 140.209C129.278 140.262 129.288 140.315 129.312 140.362C129.336 140.409 129.373 140.449 129.419 140.476C129.464 140.504 129.516 140.518 129.569 140.517C129.614 140.518 129.659 140.508 129.7 140.488C129.74 140.468 129.775 140.438 129.801 140.401L160.298 98.9148V97.948Z" fill="white"/>
<path d="M51.5575 38.7565C52.0813 37.5957 52.3343 36.331 52.2972 35.058C52.2972 32.6963 49.4388 31.3279 46.0784 30.9527C42.7181 30.5776 41.2282 31.946 41.7248 32.8178C42.2409 33.5368 42.8709 34.1668 43.5899 34.6829C43.5899 34.6829 40.2296 32.8178 37.9893 34.3131C35.7491 35.8083 38.9879 35.1848 38.3645 36.6748C37.741 38.1648 34.2592 37.5466 33.3874 41.5251C32.5156 45.5036 35.0041 49.4874 32.7639 51.2309C30.5237 52.9745 23.7819 50.6075 21.8164 54.9611C19.851 59.3147 22.6407 61.2485 17.9172 63.9854C13.1937 66.7223 9.74885 69.3957 11.1173 76.1111C12.4857 82.8265 16.9662 85.1777 25.8002 82.8053C34.6343 80.433 34.0108 75.0914 36.8957 69.5965C39.7805 64.1016 44.2398 65.2429 45.6082 62.1309C46.9766 59.0189 45.2331 55.2887 45.3599 52.425C45.4867 49.5613 48.3451 48.9432 49.4652 45.5564C50.5853 42.1697 51.5575 38.7565 51.5575 38.7565Z" fill="#122757" stroke="#122757" stroke-linecap="round" stroke-linejoin="round"/>
<path d="M12.1478 75.9843C11.9161 76.4521 11.7985 76.9681 11.8044 77.4901" stroke="white" stroke-width="0.5" stroke-linecap="round" stroke-linejoin="round"/>
<path d="M46.7812 36.2891C46.7812 36.2891 45.2278 34.4927 48.2183 35.3275C51.9855 36.3842 47.5631 40.7431 45.8618 41.6202C42.4487 43.369 37.9365 42.809 35.2948 45.9897C32.896 48.8639 36.1348 51.8597 34.6977 54.1369C33.2606 56.4141 27.5068 55.0932 25.5942 57.8354C23.6816 60.5775 29.0655 66.4634 23.5548 69.6969C19.571 72.0375 15.2068 72.9357 13.0986 74.7902" stroke="white" stroke-width="0.5" stroke-linecap="round" stroke-linejoin="round"/>
<path d="M37.847 46.9196C37.5205 47.6836 37.4214 48.5257 37.5617 49.3447C38.0372 51.3789 40.7952 55.2147 38.2803 57.3704C35.7653 59.5261 31.4487 59.4046 30.7354 61.9301C30.0221 64.4556 31.4539 71.3929 29.0605 74.6106C26.6671 77.8283 21.9911 77.6063 19.4762 79.762C16.9612 81.9177 17.3205 83.1171 17.3205 83.1171" stroke="white" stroke-width="0.5" stroke-linecap="round" stroke-linejoin="round"/>
<path d="M39.115 44.5525C38.8973 44.8603 38.6962 45.1795 38.5127 45.5089" stroke="white" stroke-width="0.5" stroke-linecap="round" stroke-linejoin="round"/>
<path d="M53.1692 75.7941L53.7768 80.5493C53.7768 80.5493 56.9469 83.7194 59.2769 85.6796C61.607 87.6398 67.5773 91.7874 67.5773 91.7874L64.5499 92.6486C64.5499 92.6486 54.6538 86.7839 52.6989 86.3083C50.744 85.8328 49.2805 83.0114 48.6729 82.1555C48.0653 81.2995 51.5788 74.9382 53.1692 75.7941Z" fill="white" stroke="#122757" stroke-linecap="round" stroke-linejoin="round"/>
<path d="M59.2135 153.161C59.2135 153.161 62.2039 155.686 63.4403 156.532C64.6766 157.377 66.119 157.758 65.8919 158.217C65.6647 158.677 65.0465 159.137 62.1353 158.746C59.224 158.355 58.3839 157.367 57.845 157.213C57.3061 157.06 56.0064 157.446 55.0131 156.833C54.0197 156.22 55.5942 152.569 55.5942 152.569C56.0305 153.079 56.6333 153.418 57.2957 153.527C57.9581 153.635 58.6374 153.505 59.2135 153.161Z" fill="white" stroke="#122757" stroke-linecap="round" stroke-linejoin="round"/>
<path d="M65.8811 158.217C65.8834 158.193 65.8834 158.168 65.8811 158.143C64.2003 158.298 62.5054 158.138 60.8829 157.673C59.0019 157.229 58.4472 156.231 56.656 156.231C55.9531 156.237 55.2544 156.123 54.5902 155.892C54.5709 156.069 54.595 156.247 54.6604 156.412C54.7258 156.577 54.8305 156.723 54.9653 156.838C55.9586 157.451 57.2636 157.065 57.7973 157.219C58.3309 157.372 59.1763 158.37 62.0875 158.751C64.9987 159.131 65.6486 158.677 65.8811 158.217Z" fill="white" stroke="#122757" stroke-linecap="round" stroke-linejoin="round"/>
<path d="M43.5582 51.046C43.5582 51.046 44.1341 54.9241 43.3944 56.488C42.6548 58.052 40.3406 58.2211 38.3645 58.5539C36.3885 58.8868 31.8499 60.6145 32.3413 65.0685C32.8327 69.5225 38.5283 79.1703 38.5283 81.8913C38.5283 84.6123 36.7953 86.0125 34.8985 91.2907C33.0017 96.569 33.2501 106.386 33.8418 112.737C34.2755 116.928 35.1034 121.069 36.3145 125.105C36.3145 125.105 31.5593 132.777 29.4459 136.074C27.3325 139.371 19.9355 153.726 19.9355 153.726C19.9355 153.726 19.9355 154.218 21.0874 154.55C21.8977 154.748 22.7361 154.803 23.5653 154.714C23.5653 154.714 37.7463 137.643 40.3881 134.758C43.0299 131.874 45.5026 126.833 45.8302 124.529C46.1577 122.226 45.7509 108.119 45.7509 108.119C45.7509 108.119 48.715 115.209 51.0344 118.839C52.4413 121.06 53.7322 123.353 54.902 125.708C54.5772 128.693 54.5772 131.704 54.902 134.69C55.4779 138.811 54.9918 152.051 55.5677 153.124C56.1436 154.196 58.3786 153.747 58.8752 153.256C59.3719 152.765 59.6043 149.558 59.6043 149.558C59.6043 149.558 60.5924 139.519 61.1894 134.795C61.7864 130.072 62.7745 126.051 62.431 124.979C62.0876 123.906 60.0376 112.441 58.4684 107.014C56.8992 101.588 52.1281 91.4281 51.0714 88.7916C50.0147 86.1551 49.4177 83.7564 49.5868 82.9321C49.7558 82.1079 52.9682 77.1625 53.8136 75.8416C54.2955 74.9462 54.5613 73.9505 54.5898 72.934C54.6182 71.9175 54.4085 70.9085 53.9774 69.9875C52.9894 67.8424 53.9774 64.9523 53.8136 63.2246C53.6498 61.4968 51.0926 60.7466 49.7717 60.0914C48.4508 59.4363 47.9541 57.9463 47.9541 56.71C48.0348 55.6685 48.2865 54.6474 48.6991 53.6878C48.6991 53.6878 44.6308 51.046 43.5582 51.046Z" fill="white" stroke="#122757" stroke-linecap="round" stroke-linejoin="round"/>
<path d="M53.5548 68.6877C53.1203 67.5836 52.7585 66.4523 52.4717 65.301" stroke="#122757" stroke-linecap="round" stroke-linejoin="round"/>
<path d="M42.8452 77.8705C42.8452 77.8705 44.3352 78.1981 47.3204 76.7082" stroke="#122757" stroke-linecap="round" stroke-linejoin="round"/>
<path d="M58.4842 106.962C56.989 101.763 52.5561 92.2681 51.2299 89.135C44.8897 91.5126 38.9616 89.4837 36.1771 88.1734C35.7756 89.0505 35.3423 90.0649 34.8985 91.2907C33.0017 96.5742 33.2501 106.386 33.8418 112.737C34.2755 116.928 35.1034 121.069 36.3145 125.105C36.3145 125.105 31.5593 132.777 29.4459 136.074C27.3325 139.371 19.9355 153.726 19.9355 153.726C19.9355 153.726 19.9355 154.218 21.0874 154.55C21.8977 154.748 22.7361 154.803 23.5653 154.714C23.5653 154.714 37.7463 137.643 40.3881 134.758C43.0299 131.874 45.5026 126.833 45.8302 124.529C46.1577 122.226 45.7509 108.119 45.7509 108.119C45.7509 108.119 48.715 115.209 51.0344 118.839C52.4413 121.06 53.7322 123.353 54.902 125.708C54.5772 128.693 54.5772 131.704 54.902 134.69C55.4779 138.811 54.9918 152.051 55.5677 153.124C56.1436 154.196 58.3786 153.747 58.8752 153.256C59.3719 152.765 59.6043 149.558 59.6043 149.558C59.6043 149.558 60.5924 139.519 61.1894 134.795C61.7864 130.072 62.7745 126.051 62.431 124.979C62.0876 123.906 60.0534 112.404 58.4842 106.962Z" fill="#122757" stroke="#122757" stroke-linecap="round" stroke-linejoin="round"/>
<path d="M90.7878 101.726V100.648H91.6913V92.1836H90.7878H81.8692H80.9657V100.648H81.8692V101.726H80.9604V103.691H84.4423V103.031H88.2147V103.691H91.6966V101.726H90.7878Z" fill="#3A77FF" stroke="#122757" stroke-linecap="round" stroke-linejoin="round"/>
<path d="M33.1445 89.6528H95.3635C95.6129 89.6528 95.8521 89.7519 96.0285 89.9283C96.2048 90.1046 96.3039 90.3438 96.3039 90.5933V92.4848C96.3039 92.7342 96.2048 92.9734 96.0285 93.1498C95.8521 93.3262 95.6129 93.4252 95.3635 93.4252H33.1445V89.6475V89.6528Z" fill="#3A77FF" stroke="#122757" stroke-linecap="round" stroke-linejoin="round"/>
<path d="M77.8011 89.0875H74.0128C73.7239 89.0875 73.4897 89.3217 73.4897 89.6105V93.4728C73.4897 93.7617 73.7239 93.9959 74.0128 93.9959H77.8011C78.09 93.9959 78.3242 93.7617 78.3242 93.4728V89.6105C78.3242 89.3217 78.09 89.0875 77.8011 89.0875Z" fill="#3A77FF" stroke="#122757" stroke-linecap="round" stroke-linejoin="round"/>
<path d="M35.0914 93.1304C35.9681 87.7771 32.339 82.7268 26.9857 81.8501C21.6324 80.9735 16.5821 84.6026 15.7055 89.9558C14.8288 95.3091 18.4579 100.359 23.8112 101.236C29.1645 102.113 34.2148 98.4837 35.0914 93.1304Z" fill="#3A77FF" stroke="#122757" stroke-linecap="round" stroke-linejoin="round"/>
<path d="M27.4172 91.5179C27.9866 91.2452 28.4698 90.8208 28.8138 90.2914C29.1577 89.7619 29.3491 89.1479 29.3668 88.5168C29.3668 86.5884 27.5915 85.0244 25.3988 85.0244C23.2062 85.0244 21.4309 86.6095 21.4309 88.5168C21.4474 89.1482 21.6383 89.7627 21.9824 90.2924C22.3265 90.822 22.8104 91.2462 23.3805 91.5179C22.8107 91.7915 22.3273 92.2168 21.9833 92.7471C21.6394 93.2775 21.4483 93.8924 21.4309 94.5242C21.4309 96.4527 23.2062 98.0166 25.3988 98.0166C27.5915 98.0166 29.3668 96.4316 29.3668 94.5242C29.3483 93.8926 29.1566 93.2783 28.8128 92.7481C28.469 92.218 27.9863 91.7924 27.4172 91.5179Z" fill="white" stroke="#122757" stroke-linecap="round" stroke-linejoin="round"/>
<path d="M65.6384 93.5098C65.6384 93.5098 68.7134 94.8095 69.6645 94.8095C70.6155 94.8095 71.7145 93.8532 72.2587 92.6961C72.8029 91.539 72.7871 90.9895 72.4648 91.2643L71.7832 91.7926C71.7832 91.7926 72.3115 90.6355 71.7145 90.7729C71.3011 90.9106 70.9579 91.2045 70.7582 91.5919C70.7582 91.5919 70.6895 90.5669 70.1453 91.0635C69.7851 91.3897 69.4642 91.7567 69.189 92.1572C69.189 92.1572 69.1203 90.8627 68.7768 91.2009C68.4334 91.539 67.1442 93.383 67.1442 93.383L65.6384 93.5098Z" fill="white" stroke="#122757" stroke-linecap="round" stroke-linejoin="round"/>
<path d="M69.1889 92.1466C69.1889 92.1466 68.9829 93.7845 67.9631 94.0593Z" fill="white"/>
<path d="M69.1889 92.1466C69.1889 92.1466 68.9829 93.7845 67.9631 94.0593" stroke="#122757" stroke-linecap="round" stroke-linejoin="round"/>
<path d="M70.7579 91.6024C70.7579 91.6024 70.2296 94.1914 69.3948 94.6035Z" fill="white"/>
<path d="M70.7579 91.6024C70.7579 91.6024 70.2296 94.1914 69.3948 94.6035" stroke="#122757" stroke-linecap="round" stroke-linejoin="round"/>
<path d="M71.7831 91.8032C71.5107 92.748 71.1443 93.6631 70.6895 94.5348Z" fill="white"/>
<path d="M71.7831 91.8032C71.5107 92.748 71.1443 93.6631 70.6895 94.5348" stroke="#122757" stroke-linecap="round" stroke-linejoin="round"/>
<path d="M49.5766 59.9329C49.0445 59.5736 48.6134 59.0837 48.3248 58.5102C48.0362 57.9366 47.8996 57.2986 47.9281 56.6571C48.0229 55.6321 48.2834 54.6293 48.6995 53.6878C48.6995 53.6878 44.6576 51.046 43.5851 51.046C43.5851 51.046 44.161 54.9241 43.4213 56.488C43.1789 56.9745 42.7835 57.368 42.2959 57.6082C43.2727 60.2381 44.5965 62.7257 46.2321 65.0051C47.7168 66.8702 48.4407 62.9392 49.5766 59.9329Z" fill="white" stroke="#122757" stroke-linecap="round" stroke-linejoin="round"/>
<path d="M37.102 59.0875C36.0937 59.2597 35.1393 59.6639 34.3141 60.2681C33.4888 60.8724 32.8154 61.6602 32.3468 62.5694C30.7195 65.7078 23.6078 79.9522 24.2154 80.8029C27.6709 85.6637 40.2404 89.1614 41.519 90.44C42.7973 91.777 44.2002 92.989 45.7088 94.0593C46.9875 94.8729 49.5394 94.5242 50.0044 94.2917C50.4693 94.0593 50.818 93.0131 50.0044 93.0131C49.6935 93.0172 49.3906 92.9146 49.1464 92.7222C48.9021 92.5299 48.7313 92.2596 48.6623 91.9564C48.5461 91.4915 49.941 92.4214 50.6384 92.0726C51.3358 91.7239 49.0797 90.4506 48.3823 89.8694C47.6849 89.2882 47.1037 88.4799 46.1738 88.4799C45.2439 88.4799 43.4951 88.4799 43.4951 88.4799C43.4951 88.4799 39.2154 85.3784 36.6265 83.0695C34.612 81.2518 32.4146 79.6476 30.0696 78.2826L37.9156 65.375" fill="white"/>
<path d="M37.102 59.0875C36.0937 59.2597 35.1393 59.6639 34.3141 60.2681C33.4888 60.8724 32.8154 61.6602 32.3468 62.5694C30.7195 65.7078 23.6078 79.9522 24.2154 80.8029C27.6709 85.6637 40.2404 89.1614 41.519 90.44C42.7973 91.777 44.2002 92.989 45.7088 94.0593C46.9875 94.8729 49.5394 94.5242 50.0044 94.2917C50.4693 94.0593 50.818 93.0131 50.0044 93.0131C49.6935 93.0172 49.3906 92.9146 49.1464 92.7222C48.9021 92.5299 48.7313 92.2596 48.6623 91.9564C48.5461 91.4915 49.941 92.4214 50.6384 92.0726C51.3358 91.7239 49.0797 90.4506 48.3823 89.8694C47.6849 89.2882 47.1037 88.4799 46.1738 88.4799C45.2439 88.4799 43.4951 88.4799 43.4951 88.4799C43.4951 88.4799 39.2154 85.3784 36.6265 83.0695C34.612 81.2518 32.4146 79.6476 30.0696 78.2826L37.9156 65.375" stroke="#122757" stroke-linecap="round" stroke-linejoin="round"/>
<path d="M48.377 89.8747C47.6796 89.2935 47.0984 88.4852 46.1685 88.4852C45.2386 88.4852 43.4898 88.4852 43.4898 88.4852C43.4898 88.4852 39.2101 85.3837 36.6212 83.0748C34.6067 81.2571 32.4093 79.6529 30.0643 78.2879L33.2027 73.1206C31.5982 72.1495 29.7629 71.6259 27.8875 71.6042C25.7741 76.0107 23.8773 80.3643 24.189 80.824C27.6444 85.6849 40.214 89.1826 41.4926 90.4612C42.7708 91.7982 44.1738 93.0101 45.6824 94.0804C46.961 94.8941 49.513 94.5454 49.9779 94.3129C50.4429 94.0804 50.7916 93.0343 49.9779 93.0343C49.6671 93.0384 49.3642 92.9357 49.12 92.7434C48.8757 92.551 48.7049 92.2807 48.6359 91.9776C48.5197 91.5126 49.9145 92.4425 50.612 92.0938C51.3094 91.7451 49.0745 90.4612 48.377 89.8747Z" fill="white" stroke="#122757" stroke-linecap="round" stroke-linejoin="round"/>
<path d="M52.6301 45.3557C52.218 44.5314 52.218 43.871 52.3818 42.7139C52.5456 41.5568 51.5576 38.7512 51.5576 38.7512C50.5484 40.4948 47.6319 41.5304 46.3427 41.9214C44.9215 42.3546 46.9979 43.3373 46.776 44.6529C46.5541 45.9685 43.7168 46.7294 43.7168 46.7294C43.7168 46.7294 42.8873 45.0228 41.7355 45.0228C40.5837 45.0228 39.7647 47.6646 40.4199 49.0647C40.5906 49.4526 40.888 49.771 41.2633 49.9678C41.6386 50.1645 42.0696 50.228 42.4857 50.1478C42.4857 50.1478 42.4065 52.6258 43.9704 53.3655C45.6391 54.1617 47.38 54.7969 49.1694 55.2623C50.1574 55.4261 51.1455 54.9347 51.5576 53.45C51.8799 51.9538 52.1005 50.4375 52.218 48.9115C52.9099 48.4588 53.5464 47.9268 54.1148 47.3264C54.5111 46.7558 53.0423 46.1799 52.6301 45.3557Z" fill="white" stroke="#122757" stroke-linecap="round" stroke-linejoin="round"/>
<path d="M51.024 45.3926C51.024 45.847 50.8761 46.2116 50.6965 46.2116C50.5168 46.2116 50.3689 45.847 50.3689 45.3926C50.3689 44.9382 50.5168 44.5737 50.6965 44.5737C50.8761 44.5737 51.024 44.9382 51.024 45.3926Z" fill="#122757"/>
<path d="M49.6028 44.0295C49.6028 44.0295 50.4798 43.0414 51.135 43.2634" stroke="#122757" stroke-linecap="round" stroke-linejoin="round"/>
<path d="M51.135 50.803C50.7391 50.9224 50.3188 50.9365 49.9157 50.8438C49.5126 50.7512 49.1407 50.555 48.8367 50.2746" stroke="#122757" stroke-linecap="round" stroke-linejoin="round"/>
<path d="M19.9728 153.726C19.9728 153.726 18.002 157.678 18.076 158.217C18.15 158.756 22.0598 161.588 23.8879 162.581C25.716 163.575 29.0235 163.733 28.791 162.354C28.5585 160.975 25.4201 160.056 24.654 157.985C24.246 156.913 23.8933 155.822 23.5973 154.714C22.3201 154.733 21.0636 154.391 19.9728 153.726Z" fill="white" stroke="#122757" stroke-linecap="round" stroke-linejoin="round"/>
<path d="M28.8014 162.375C27.3947 162.564 25.9633 162.361 24.6644 161.789C21.8272 160.558 19.0797 158.043 18.3242 157.33C18.19 157.615 18.1043 157.92 18.0706 158.233C18.1498 158.761 22.0543 161.604 23.8824 162.597C25.7105 163.591 28.9916 163.728 28.8014 162.375Z" fill="white" stroke="#122757" stroke-linecap="round" stroke-linejoin="round"/>
</svg>
